# xmcd CD database file
#
# Track frame offsets:
#	150
#	15572
#	26612
#	48055
#	78770
#	97472
#	128105
#	166777
#	194607
#	215542
#
# Disc length: 3443 seconds
#
# Revision: 2
# Processed by: cddbd v1.5.1PL0 Copyright (c) Steve Scherf et al.
# Submitted via: CDex 1.51
#
DISCID=7d0d710a
DTITLE=Various Artist - Soul Instinct - Tribute To Otis Redding
DYEAR=1993
DGENRE=Jazz
TTITLE0=Memphis All Star R&B Band - Soul Finger
TTITLE1=Memphis All Star R&B Band - Philly Dog
TTITLE2=Millie Jackson - Shakey Ground
TTITLE3=Ollie Nightingale - I Got A Sure Thing
TTITLE4=The Memphis Horns - Greeen Onions
TTITLE5=Rufus Thomas - Walking The Dog
TTITLE6=Rufus Thomas - Big Fine Hunk of Woman
TTITLE7=David Hudson - Nobody Knows You
TTITLE8=Carla Thomas - Lovey Dovey
TTITLE9=Rufus Thomas - Do The Funky Chicken
EXTD=YEAR: 1993
EXTT0=
EXTT1=
EXTT2=
EXTT3=
EXTT4=
EXTT5=
EXTT6=
EXTT7=
EXTT8=
EXTT9=
PLAYORDER=
